<?xml version="1.0" encoding="UTF-8"?>
<svg id="Layer_1" data-name="Layer 1" xmlns="http://www.w3.org/2000/svg" xmlns:xlink="http://www.w3.org/1999/xlink" viewBox="0 0 15.95 10.29">
  <defs>
    <style>
      .cls-1 {
        fill: url(#linear-gradient-2);
      }

      .cls-2 {
        fill: #fff;
      }

      .cls-3 {
        fill: #09a372;
      }

      .cls-4 {
        fill: url(#linear-gradient);
      }
    </style>
    <linearGradient id="linear-gradient" x1="7.96" y1="0" x2="7.96" y2="7.38" gradientUnits="userSpaceOnUse">
      <stop offset="0" stop-color="#070e1f"/>
      <stop offset="1" stop-color="#09a372"/>
    </linearGradient>
    <linearGradient id="linear-gradient-2" x1="3.66" y1="6.22" x2="8.61" y2="-.85" xlink:href="#linear-gradient"/>
  </defs>
  <g>
    <path class="cls-4" d="m11.36,7.38h-6.81c-.79,0-1.43-.64-1.43-1.43V1.43c0-.79.64-1.43,1.43-1.43h6.81c.78,0,1.43.64,1.43,1.43v4.52c0,.79-.64,1.43-1.43,1.43Z"/>
    <path class="cls-1" d="m12.07.2l-2.29,3.26-2.87-.72-2.64,4.61c-.65-.13-1.15-.71-1.15-1.4V1.43c0-.79.64-1.43,1.43-1.43h6.81c.25,0,.5.08.71.2Z"/>
  </g>
  <polygon class="cls-2" points="8.61 0 6.13 4.11 7.74 4.18 7.11 7.38 10.24 2.81 8.38 2.84 8.61 0"/>
  <g>
    <path class="cls-3" d="m.42,10.27h-.42v-1.83h1.38v.34H.42v1.49Zm-.03-1.01h.88v.34H.39v-.34Z"/>
    <path class="cls-3" d="m1.64,10.27v-1.94h.41v1.94h-.41Z"/>
    <path class="cls-3" d="m2.86,10.29c-.11,0-.2-.02-.28-.06-.08-.04-.14-.09-.18-.15s-.06-.14-.06-.22.02-.16.06-.22c.04-.06.11-.11.19-.15.09-.04.2-.05.35-.05h.37v.24h-.33c-.1,0-.16.02-.2.05-.04.03-.05.07-.05.12,0,.05.02.09.06.12.04.03.1.05.17.05s.13-.02.18-.05c.05-.03.09-.08.12-.14l.06.19c-.03.09-.08.16-.16.21-.08.05-.18.07-.3.07Zm.43-.02v-.27l-.03-.06v-.49c0-.09-.03-.15-.08-.2-.05-.05-.13-.07-.24-.07-.07,0-.15.01-.22.04-.07.02-.13.06-.18.1l-.15-.28c.08-.05.17-.1.28-.13.11-.03.22-.04.33-.04.21,0,.38.05.5.15.12.1.18.26.18.47v.8h-.38Z"/>
    <path class="cls-3" d="m4.51,10.29c-.12,0-.24-.01-.35-.04-.11-.03-.2-.06-.26-.11l.14-.29c.06.04.14.07.23.1.09.03.17.04.26.04.09,0,.16-.01.2-.03s.06-.05.06-.09c0-.03-.02-.06-.05-.07-.03-.02-.07-.03-.12-.04-.05,0-.11-.02-.17-.03-.06,0-.12-.02-.18-.04-.06-.01-.12-.04-.17-.07-.05-.03-.09-.07-.12-.12-.03-.05-.05-.12-.05-.2,0-.09.03-.17.08-.24.05-.07.13-.12.22-.16.1-.04.21-.06.35-.06.1,0,.19.01.29.03.1.02.18.05.25.09l-.14.29c-.07-.04-.14-.07-.21-.08-.07-.01-.14-.02-.2-.02-.09,0-.16.01-.2.04-.04.02-.06.06-.06.09,0,.03.02.06.05.08.03.02.07.03.12.04s.11.02.17.03.12.02.18.04c.06.02.12.04.17.07.05.03.09.07.12.12s.05.11.05.19c0,.09-.03.16-.08.23-.05.07-.13.12-.23.16-.1.04-.22.06-.36.06Z"/>
    <path class="cls-3" d="m6.28,8.84c.11,0,.21.02.3.07.09.04.16.11.21.2.05.09.08.21.08.35v.8h-.41v-.74c0-.11-.02-.2-.07-.25-.05-.05-.12-.08-.21-.08-.06,0-.12.01-.17.04-.05.03-.09.07-.12.12-.03.06-.04.13-.04.21v.69h-.41v-1.94h.41v.92l-.09-.12c.05-.09.12-.17.22-.22s.2-.08.32-.08Z"/>
    <path class="cls-3" d="m7.68,10.27h-.42v-1.83h1.38v.34h-.96v1.49Zm-.03-1.01h.88v.34h-.88v-.34Z"/>
    <path class="cls-3" d="m9.45,10.29c-.12,0-.22-.02-.31-.07-.09-.05-.16-.11-.21-.21-.05-.09-.08-.21-.08-.36v-.79h.41v.73c0,.12.02.2.07.26s.12.08.21.08c.06,0,.12-.01.17-.04.05-.03.09-.07.11-.13.03-.06.04-.13.04-.21v-.69h.41v1.41h-.39v-.39l.07.11c-.05.1-.12.17-.21.22-.09.05-.19.07-.3.07Z"/>
    <path class="cls-3" d="m11.51,8.84c.11,0,.21.02.3.07.09.04.16.11.21.2.05.09.08.21.08.35v.8h-.41v-.74c0-.11-.02-.2-.07-.25-.05-.05-.12-.08-.21-.08-.06,0-.12.01-.17.04-.05.03-.09.07-.12.12s-.04.13-.04.21v.69h-.41v-1.41h.39v.39l-.07-.12c.05-.09.12-.17.22-.22.09-.05.2-.08.32-.08Z"/>
    <path class="cls-3" d="m13.07,10.29c-.13,0-.25-.03-.36-.09-.11-.06-.19-.14-.25-.25-.06-.11-.09-.24-.09-.38s.03-.28.09-.38c.06-.11.15-.19.25-.25.11-.06.23-.09.36-.09.12,0,.22.03.31.08.09.05.16.13.21.24.05.11.07.24.07.41s-.02.3-.07.41c-.05.11-.11.19-.2.24s-.19.08-.32.08Zm.07-.33c.07,0,.13-.02.18-.05.05-.03.1-.08.13-.13.03-.06.05-.13.05-.21s-.02-.15-.05-.21c-.03-.06-.08-.1-.13-.13s-.11-.05-.18-.05-.13.02-.18.05c-.05.03-.1.08-.13.13-.03.06-.05.13-.05.21s.02.15.05.21c.03.06.08.1.13.13.05.03.11.05.18.05Zm.37.31v-.71s-.02-.42-.02-.42v-.82h.41v1.94h-.39Z"/>
    <path class="cls-3" d="m14.1,10.27l.79-1.08v.31l-.75-1.05h.48l.52.73h-.2s.51-.73.51-.73h.46l-.75,1.03v-.3l.79,1.1h-.49l-.54-.78h.19l-.53.78h-.49Z"/>
  </g>
</svg>