<?xml version="1.0" encoding="UTF-8"?>
<svg id="Layer_1" data-name="Layer 1" xmlns="http://www.w3.org/2000/svg" xmlns:xlink="http://www.w3.org/1999/xlink" viewBox="0 0 15.95 10.29">
  <defs>
    <style>
      .cls-1 {
        fill: url(#linear-gradient-2);
      }

      .cls-2 {
        fill: #fff;
      }

      .cls-3 {
        fill: url(#linear-gradient);
      }
    </style>
    <linearGradient id="linear-gradient" x1="7.96" y1="0" x2="7.96" y2="7.38" gradientUnits="userSpaceOnUse">
      <stop offset="0" stop-color="#070e1f"/>
      <stop offset="1" stop-color="#09a372"/>
    </linearGradient>
    <linearGradient id="linear-gradient-2" x1="3.66" y1="6.22" x2="8.61" y2="-.85" xlink:href="#linear-gradient"/>
  </defs>
  <g>
    <path class="cls-3" d="m11.36,7.38h-6.81c-.79,0-1.43-.64-1.43-1.43V1.43c0-.79.64-1.43,1.43-1.43h6.81c.78,0,1.43.64,1.43,1.43v4.52c0,.79-.64,1.43-1.43,1.43Z"/>
    <path class="cls-1" d="m12.07.2l-2.29,3.26-2.87-.72-2.64,4.61c-.65-.13-1.15-.71-1.15-1.4V1.43c0-.79.64-1.43,1.43-1.43h6.81c.25,0,.5.08.71.2Z"/>
  </g>
  <polygon class="cls-2" points="8.61 0 6.13 4.11 7.74 4.18 7.11 7.38 10.24 2.81 8.38 2.84 8.61 0"/>
</svg>