<?xml version="1.0" encoding="UTF-8"?>
<svg id="Layer_1" data-name="Layer 1" xmlns="http://www.w3.org/2000/svg" xmlns:xlink="http://www.w3.org/1999/xlink" viewBox="0 0 177.69 114.63">
  <defs>
    <style>
      .cls-1 {
        fill: url(#linear-gradient-2);
      }

      .cls-2 {
        fill: #fff;
      }

      .cls-3 {
        fill: #09a372;
      }

      .cls-4 {
        fill: url(#linear-gradient);
      }
    </style>
    <linearGradient id="linear-gradient" x1="88.67" y1="0" x2="88.67" y2="82.21" gradientUnits="userSpaceOnUse">
      <stop offset="0" stop-color="#070e1f"/>
      <stop offset="1" stop-color="#09a372"/>
    </linearGradient>
    <linearGradient id="linear-gradient-2" x1="40.75" y1="69.27" x2="95.88" y2="-9.46" xlink:href="#linear-gradient"/>
  </defs>
  <g>
    <path class="cls-4" d="m126.59,82.21H50.75c-8.75,0-15.92-7.16-15.92-15.92V15.92c0-8.75,7.16-15.92,15.92-15.92h75.84c8.64,0,15.92,7.16,15.92,15.92v50.37c0,8.75-7.16,15.92-15.92,15.92Z"/>
    <path class="cls-1" d="m134.5,2.18l-25.46,36.38-32.01-8-29.43,51.33c-7.25-1.47-12.77-7.92-12.77-15.6V15.92c0-8.75,7.17-15.92,15.92-15.92h75.84c2.82,0,5.61.88,7.92,2.18Z"/>
  </g>
  <polygon class="cls-2" points="95.94 0 68.3 45.83 86.3 46.56 79.21 82.21 114.13 31.28 93.4 31.65 95.94 0"/>
  <g>
    <path class="cls-3" d="m4.71,114.39H0v-20.37h15.39v3.78H4.71v16.59Zm-.35-11.2h9.78v3.78H4.37v-3.78Z"/>
    <path class="cls-3" d="m18.27,114.39v-21.59h4.54v21.59h-4.54Z"/>
    <path class="cls-3" d="m31.86,114.63c-1.22,0-2.27-.21-3.14-.63-.87-.42-1.54-.98-2.01-1.7s-.7-1.52-.7-2.42.23-1.75.68-2.44c.46-.7,1.18-1.25,2.17-1.64.99-.4,2.28-.6,3.87-.6h4.16v2.65h-3.67c-1.07,0-1.8.17-2.2.52-.4.35-.6.79-.6,1.31,0,.58.23,1.04.68,1.38.46.34,1.08.51,1.88.51s1.44-.18,2.04-.54c.6-.36,1.04-.89,1.31-1.59l.7,2.1c-.33,1.01-.93,1.77-1.8,2.3-.87.52-2,.79-3.38.79Zm4.77-.23v-3.06l-.29-.67v-5.47c0-.97-.3-1.73-.89-2.27-.59-.54-1.5-.81-2.72-.81-.83,0-1.65.13-2.46.39-.81.26-1.49.62-2.05,1.06l-1.63-3.17c.85-.6,1.88-1.07,3.08-1.4,1.2-.33,2.42-.49,3.67-.49,2.39,0,4.24.56,5.56,1.69,1.32,1.13,1.98,2.88,1.98,5.27v8.93h-4.25Z"/>
    <path class="cls-3" d="m50.26,114.63c-1.34,0-2.62-.16-3.86-.48-1.23-.32-2.21-.72-2.92-1.21l1.51-3.26c.72.45,1.57.81,2.55,1.09.98.28,1.94.42,2.9.42,1.05,0,1.79-.13,2.23-.38s.65-.6.65-1.05c0-.37-.17-.64-.51-.83-.34-.18-.79-.32-1.35-.42-.56-.1-1.18-.19-1.85-.29-.67-.1-1.34-.23-2.02-.39-.68-.16-1.3-.41-1.86-.74-.56-.33-1.01-.78-1.35-1.34-.34-.56-.51-1.29-.51-2.18,0-.99.29-1.86.86-2.62.57-.76,1.4-1.35,2.49-1.79,1.09-.44,2.39-.65,3.9-.65,1.07,0,2.15.12,3.26.35,1.11.23,2.03.57,2.76,1.02l-1.51,3.23c-.76-.45-1.52-.75-2.28-.92-.77-.16-1.51-.25-2.23-.25-1.01,0-1.75.14-2.21.41-.47.27-.7.62-.7,1.05,0,.39.17.68.51.87.34.19.79.35,1.35.47s1.18.22,1.85.31,1.34.22,2.02.39c.68.17,1.29.42,1.85.74.55.32,1,.76,1.35,1.31s.52,1.28.52,2.17c0,.97-.29,1.83-.87,2.57-.58.75-1.42,1.33-2.52,1.76-1.1.43-2.43.64-4,.64Z"/>
    <path class="cls-3" d="m69.96,98.51c1.24,0,2.35.25,3.33.74.98.5,1.75,1.25,2.31,2.27.56,1.02.84,2.32.84,3.91v8.96h-4.54v-8.26c0-1.26-.28-2.19-.83-2.79-.55-.6-1.33-.9-2.34-.9-.72,0-1.36.15-1.93.45-.57.3-1.02.76-1.34,1.38-.32.62-.48,1.42-.48,2.39v7.74h-4.54v-21.59h4.54v10.27l-1.02-1.31c.56-1.05,1.37-1.85,2.42-2.41,1.05-.56,2.24-.84,3.58-.84Z"/>
    <path class="cls-3" d="m85.58,114.39h-4.71v-20.37h15.39v3.78h-10.68v16.59Zm-.35-11.2h9.78v3.78h-9.78v-3.78Z"/>
    <path class="cls-3" d="m105.34,114.63c-1.3,0-2.46-.25-3.48-.76-1.02-.5-1.81-1.28-2.37-2.31-.56-1.04-.84-2.36-.84-3.97v-8.85h4.54v8.18c0,1.3.28,2.26.83,2.87s1.33.92,2.34.92c.7,0,1.32-.15,1.86-.45.54-.3.97-.77,1.28-1.4.31-.63.46-1.42.46-2.37v-7.74h4.54v15.66h-4.31v-4.31l.79,1.25c-.52,1.09-1.29,1.91-2.31,2.46-1.02.55-2.13.83-3.33.83Z"/>
    <path class="cls-3" d="m128.24,98.51c1.24,0,2.35.25,3.33.74.98.5,1.75,1.25,2.31,2.27.56,1.02.84,2.32.84,3.91v8.96h-4.54v-8.26c0-1.26-.28-2.19-.83-2.79-.55-.6-1.33-.9-2.34-.9-.72,0-1.36.15-1.93.45-.57.3-1.02.76-1.34,1.38s-.48,1.42-.48,2.39v7.74h-4.54v-15.66h4.34v4.34l-.81-1.31c.56-1.05,1.37-1.85,2.42-2.41,1.05-.56,2.24-.84,3.58-.84Z"/>
    <path class="cls-3" d="m145.68,114.63c-1.47,0-2.8-.33-3.99-1-1.18-.67-2.12-1.61-2.81-2.81-.69-1.2-1.03-2.62-1.03-4.25s.34-3.07,1.03-4.28c.69-1.2,1.62-2.13,2.81-2.79,1.18-.66,2.51-.99,3.99-.99,1.32,0,2.47.29,3.46.87.99.58,1.76,1.46,2.3,2.65.54,1.18.82,2.7.82,4.54s-.26,3.33-.79,4.52c-.52,1.19-1.28,2.08-2.26,2.66-.98.58-2.16.87-3.54.87Zm.79-3.72c.74,0,1.41-.17,2.01-.52.6-.35,1.08-.85,1.44-1.5.36-.65.54-1.42.54-2.31s-.18-1.69-.54-2.33c-.36-.64-.84-1.13-1.44-1.48s-1.27-.52-2.01-.52-1.44.17-2.04.52c-.6.35-1.08.84-1.44,1.48-.36.64-.54,1.42-.54,2.33s.18,1.66.54,2.31c.36.65.84,1.15,1.44,1.5.6.35,1.28.52,2.04.52Zm4.1,3.49v-3.2l.09-4.66-.29-4.63v-9.11h4.54v21.59h-4.34Z"/>
    <path class="cls-3" d="m157.08,114.39l8.76-12.08v3.43l-8.38-11.73h5.35l5.79,8.18-2.24.03,5.7-8.21h5.12l-8.32,11.52v-3.38l8.82,12.22h-5.44l-5.99-8.64h2.15l-5.91,8.64h-5.41Z"/>
  </g>
</svg>