<?xml version="1.0" encoding="UTF-8"?>
<svg id="Layer_1" data-name="Layer 1" xmlns="http://www.w3.org/2000/svg" xmlns:xlink="http://www.w3.org/1999/xlink" viewBox="0 0 244.24 157.56">
  <defs>
    <style>
      .cls-1 {
        fill: url(#linear-gradient-2);
      }

      .cls-2 {
        fill: #fff;
      }

      .cls-3 {
        fill: url(#linear-gradient);
      }
    </style>
    <linearGradient id="linear-gradient" x1="121.88" y1="0" x2="121.88" y2="113" gradientUnits="userSpaceOnUse">
      <stop offset="0" stop-color="#070e1f"/>
      <stop offset="1" stop-color="#09a372"/>
    </linearGradient>
    <linearGradient id="linear-gradient-2" x1="56.02" y1="95.22" x2="131.8" y2="-13" xlink:href="#linear-gradient"/>
  </defs>
  <g>
    <path class="cls-3" d="m174,113h-104.24c-12.03,0-21.88-9.85-21.88-21.88V21.88C47.88,9.85,57.72,0,69.76,0h104.24C185.88,0,195.88,9.85,195.88,21.88v69.24c0,12.03-9.85,21.88-21.88,21.88Z"/>
    <path class="cls-1" d="m184.88,3l-35,50-44-11-40.45,70.56c-9.97-2.02-17.55-10.89-17.55-21.44V21.88C47.88,9.85,57.73,0,69.76,0h104.24C177.88,0,181.71,1.21,184.88,3Z"/>
  </g>
  <polygon class="cls-2" points="131.88 0 93.88 63 118.62 64 108.88 113 156.88 43 128.38 43.5 131.88 0"/>
</svg>