<?xml version="1.0" encoding="UTF-8"?>
<svg id="Layer_1" data-name="Layer 1" xmlns="http://www.w3.org/2000/svg" xmlns:xlink="http://www.w3.org/1999/xlink" viewBox="0 0 244.24 157.56">
  <defs>
    <style>
      .cls-1 {
        fill: url(#linear-gradient-2);
      }

      .cls-2 {
        fill: #fff;
      }

      .cls-3 {
        fill: #09a372;
      }

      .cls-4 {
        fill: url(#linear-gradient);
      }
    </style>
    <linearGradient id="linear-gradient" x1="121.88" y1="0" x2="121.88" y2="113" gradientUnits="userSpaceOnUse">
      <stop offset="0" stop-color="#070e1f"/>
      <stop offset="1" stop-color="#09a372"/>
    </linearGradient>
    <linearGradient id="linear-gradient-2" x1="56.02" y1="95.22" x2="131.8" y2="-13" xlink:href="#linear-gradient"/>
  </defs>
  <g>
    <path class="cls-4" d="m174,113h-104.24c-12.03,0-21.88-9.85-21.88-21.88V21.88C47.88,9.85,57.72,0,69.76,0h104.24C185.88,0,195.88,9.85,195.88,21.88v69.24c0,12.03-9.85,21.88-21.88,21.88Z"/>
    <path class="cls-1" d="m184.88,3l-35,50-44-11-40.45,70.56c-9.97-2.02-17.55-10.89-17.55-21.44V21.88C47.88,9.85,57.73,0,69.76,0h104.24C177.88,0,181.71,1.21,184.88,3Z"/>
  </g>
  <polygon class="cls-2" points="131.88 0 93.88 63 118.62 64 108.88 113 156.88 43 128.38 43.5 131.88 0"/>
  <g>
    <path class="cls-3" d="m6.48,157.24H0v-28h21.16v5.2H6.48v22.8Zm-.48-15.4h13.44v5.2H6v-5.2Z"/>
    <path class="cls-3" d="m25.12,157.24v-29.68h6.24v29.68h-6.24Z"/>
    <path class="cls-3" d="m43.8,157.56c-1.68,0-3.12-.29-4.32-.86-1.2-.57-2.12-1.35-2.76-2.34s-.96-2.09-.96-3.32.31-2.4.94-3.36c.63-.96,1.62-1.71,2.98-2.26,1.36-.55,3.13-.82,5.32-.82h5.72v3.64h-5.04c-1.47,0-2.47.24-3.02.72-.55.48-.82,1.08-.82,1.8,0,.8.31,1.43.94,1.9.63.47,1.49.7,2.58.7s1.97-.25,2.8-.74c.83-.49,1.43-1.22,1.8-2.18l.96,2.88c-.45,1.39-1.28,2.44-2.48,3.16-1.2.72-2.75,1.08-4.64,1.08Zm6.56-.32v-4.2l-.4-.92v-7.52c0-1.33-.41-2.37-1.22-3.12-.81-.75-2.06-1.12-3.74-1.12-1.15,0-2.27.18-3.38.54-1.11.36-2.05.85-2.82,1.46l-2.24-4.36c1.17-.83,2.59-1.47,4.24-1.92,1.65-.45,3.33-.68,5.04-.68,3.28,0,5.83.77,7.64,2.32,1.81,1.55,2.72,3.96,2.72,7.24v12.28h-5.84Z"/>
    <path class="cls-3" d="m69.08,157.56c-1.84,0-3.61-.22-5.3-.66-1.69-.44-3.03-.99-4.02-1.66l2.08-4.48c.99.61,2.15,1.11,3.5,1.5,1.35.39,2.67.58,3.98.58,1.44,0,2.46-.17,3.06-.52s.9-.83.9-1.44c0-.51-.23-.89-.7-1.14-.47-.25-1.09-.45-1.86-.58-.77-.13-1.62-.27-2.54-.4-.92-.13-1.85-.31-2.78-.54-.93-.23-1.79-.57-2.56-1.02-.77-.45-1.39-1.07-1.86-1.84-.47-.77-.7-1.77-.7-3,0-1.36.39-2.56,1.18-3.6.79-1.04,1.93-1.86,3.42-2.46,1.49-.6,3.28-.9,5.36-.9,1.47,0,2.96.16,4.48.48,1.52.32,2.79.79,3.8,1.4l-2.08,4.44c-1.04-.61-2.09-1.03-3.14-1.26-1.05-.23-2.07-.34-3.06-.34-1.39,0-2.4.19-3.04.56-.64.37-.96.85-.96,1.44,0,.53.23.93.7,1.2.47.27,1.09.48,1.86.64s1.62.3,2.54.42,1.85.3,2.78.54c.93.24,1.78.58,2.54,1.02.76.44,1.38,1.04,1.86,1.8s.72,1.75.72,2.98c0,1.33-.4,2.51-1.2,3.54-.8,1.03-1.95,1.83-3.46,2.42-1.51.59-3.34.88-5.5.88Z"/>
    <path class="cls-3" d="m96.16,135.4c1.71,0,3.23.34,4.58,1.02,1.35.68,2.41,1.72,3.18,3.12.77,1.4,1.16,3.19,1.16,5.38v12.32h-6.24v-11.36c0-1.73-.38-3.01-1.14-3.84-.76-.83-1.83-1.24-3.22-1.24-.99,0-1.87.21-2.66.62-.79.41-1.4,1.05-1.84,1.9-.44.85-.66,1.95-.66,3.28v10.64h-6.24v-29.68h6.24v14.12l-1.4-1.8c.77-1.44,1.88-2.55,3.32-3.32s3.08-1.16,4.92-1.16Z"/>
    <path class="cls-3" d="m117.64,157.24h-6.48v-28h21.16v5.2h-14.68v22.8Zm-.48-15.4h13.44v5.2h-13.44v-5.2Z"/>
    <path class="cls-3" d="m144.8,157.56c-1.79,0-3.38-.35-4.78-1.04-1.4-.69-2.49-1.75-3.26-3.18-.77-1.43-1.16-3.25-1.16-5.46v-12.16h6.24v11.24c0,1.79.38,3.1,1.14,3.94s1.83,1.26,3.22,1.26c.96,0,1.81-.21,2.56-.62.75-.41,1.33-1.05,1.76-1.92.43-.87.64-1.95.64-3.26v-10.64h6.24v21.52h-5.92v-5.92l1.08,1.72c-.72,1.49-1.78,2.62-3.18,3.38-1.4.76-2.93,1.14-4.58,1.14Z"/>
    <path class="cls-3" d="m176.28,135.4c1.71,0,3.23.34,4.58,1.02,1.35.68,2.41,1.72,3.18,3.12.77,1.4,1.16,3.19,1.16,5.38v12.32h-6.24v-11.36c0-1.73-.38-3.01-1.14-3.84-.76-.83-1.83-1.24-3.22-1.24-.99,0-1.87.21-2.66.62-.79.41-1.4,1.05-1.84,1.9s-.66,1.95-.66,3.28v10.64h-6.24v-21.52h5.96v5.96l-1.12-1.8c.77-1.44,1.88-2.55,3.32-3.32,1.44-.77,3.08-1.16,4.92-1.16Z"/>
    <path class="cls-3" d="m200.24,157.56c-2.03,0-3.85-.46-5.48-1.38-1.63-.92-2.91-2.21-3.86-3.86-.95-1.65-1.42-3.6-1.42-5.84s.47-4.23,1.42-5.88c.95-1.65,2.23-2.93,3.86-3.84,1.63-.91,3.45-1.36,5.48-1.36,1.81,0,3.4.4,4.76,1.2,1.36.8,2.41,2.01,3.16,3.64.75,1.63,1.12,3.71,1.12,6.24s-.36,4.58-1.08,6.22c-.72,1.64-1.75,2.86-3.1,3.66s-2.97,1.2-4.86,1.2Zm1.08-5.12c1.01,0,1.93-.24,2.76-.72.83-.48,1.49-1.17,1.98-2.06.49-.89.74-1.95.74-3.18s-.25-2.32-.74-3.2c-.49-.88-1.15-1.56-1.98-2.04s-1.75-.72-2.76-.72-1.97.24-2.8.72c-.83.48-1.49,1.16-1.98,2.04-.49.88-.74,1.95-.74,3.2s.25,2.29.74,3.18c.49.89,1.15,1.58,1.98,2.06.83.48,1.76.72,2.8.72Zm5.64,4.8v-4.4l.12-6.4-.4-6.36v-12.52h6.24v29.68h-5.96Z"/>
    <path class="cls-3" d="m215.92,157.24l12.04-16.6v4.72l-11.52-16.12h7.36l7.96,11.24-3.08.04,7.84-11.28h7.04l-11.44,15.84v-4.64l12.12,16.8h-7.48l-8.24-11.88h2.96l-8.12,11.88h-7.44Z"/>
  </g>
</svg>