<?xml version="1.0" encoding="UTF-8"?>
<svg id="Layer_1" data-name="Layer 1" xmlns="http://www.w3.org/2000/svg" xmlns:xlink="http://www.w3.org/1999/xlink" viewBox="0 0 31.46 20.3">
  <defs>
    <style>
      .cls-1 {
        fill: url(#linear-gradient-2);
      }

      .cls-2 {
        fill: #fff;
      }

      .cls-3 {
        fill: #09a372;
      }

      .cls-4 {
        fill: url(#linear-gradient);
      }
    </style>
    <linearGradient id="linear-gradient" x1="15.7" y1="0" x2="15.7" y2="14.56" gradientUnits="userSpaceOnUse">
      <stop offset="0" stop-color="#070e1f"/>
      <stop offset="1" stop-color="#09a372"/>
    </linearGradient>
    <linearGradient id="linear-gradient-2" x1="7.22" y1="12.27" x2="16.98" y2="-1.68" xlink:href="#linear-gradient"/>
  </defs>
  <g>
    <path class="cls-4" d="m22.42,14.56h-13.43c-1.55,0-2.82-1.27-2.82-2.82V2.82c0-1.55,1.27-2.82,2.82-2.82h13.43c1.53,0,2.82,1.27,2.82,2.82v8.92c0,1.55-1.27,2.82-2.82,2.82Z"/>
    <path class="cls-1" d="m23.82.39l-4.51,6.44-5.67-1.42-5.21,9.09c-1.28-.26-2.26-1.4-2.26-2.76V2.82c0-1.55,1.27-2.82,2.82-2.82h13.43c.5,0,.99.16,1.4.39Z"/>
  </g>
  <polygon class="cls-2" points="16.99 0 12.09 8.12 15.28 8.25 14.03 14.56 20.21 5.54 16.54 5.6 16.99 0"/>
  <g>
    <path class="cls-3" d="m.83,20.26h-.83v-3.61h2.73v.67H.83v2.94Zm-.06-1.98h1.73v.67H.77v-.67Z"/>
    <path class="cls-3" d="m3.24,20.26v-3.82h.8v3.82h-.8Z"/>
    <path class="cls-3" d="m5.64,20.3c-.22,0-.4-.04-.56-.11-.15-.07-.27-.17-.36-.3s-.12-.27-.12-.43.04-.31.12-.43c.08-.12.21-.22.38-.29.18-.07.4-.11.69-.11h.74v.47h-.65c-.19,0-.32.03-.39.09-.07.06-.11.14-.11.23,0,.1.04.18.12.24.08.06.19.09.33.09s.25-.03.36-.1c.11-.06.18-.16.23-.28l.12.37c-.06.18-.16.31-.32.41-.15.09-.35.14-.6.14Zm.85-.04v-.54l-.05-.12v-.97c0-.17-.05-.31-.16-.4-.1-.1-.27-.14-.48-.14-.15,0-.29.02-.44.07-.14.05-.26.11-.36.19l-.29-.56c.15-.11.33-.19.55-.25.21-.06.43-.09.65-.09.42,0,.75.1.98.3.23.2.35.51.35.93v1.58h-.75Z"/>
    <path class="cls-3" d="m8.9,20.3c-.24,0-.46-.03-.68-.09-.22-.06-.39-.13-.52-.21l.27-.58c.13.08.28.14.45.19.17.05.34.07.51.07.19,0,.32-.02.39-.07s.12-.11.12-.19c0-.07-.03-.11-.09-.15-.06-.03-.14-.06-.24-.07-.1-.02-.21-.03-.33-.05-.12-.02-.24-.04-.36-.07-.12-.03-.23-.07-.33-.13-.1-.06-.18-.14-.24-.24-.06-.1-.09-.23-.09-.39,0-.18.05-.33.15-.46.1-.13.25-.24.44-.32.19-.08.42-.12.69-.12.19,0,.38.02.58.06.2.04.36.1.49.18l-.27.57c-.13-.08-.27-.13-.4-.16-.14-.03-.27-.04-.39-.04-.18,0-.31.02-.39.07-.08.05-.12.11-.12.19,0,.07.03.12.09.15.06.03.14.06.24.08s.21.04.33.05.24.04.36.07c.12.03.23.07.33.13.1.06.18.13.24.23s.09.23.09.38c0,.17-.05.32-.15.46-.1.13-.25.24-.45.31-.19.08-.43.11-.71.11Z"/>
    <path class="cls-3" d="m12.39,17.44c.22,0,.42.04.59.13.17.09.31.22.41.4.1.18.15.41.15.69v1.59h-.8v-1.46c0-.22-.05-.39-.15-.49-.1-.11-.24-.16-.41-.16-.13,0-.24.03-.34.08-.1.05-.18.13-.24.24-.06.11-.08.25-.08.42v1.37h-.8v-3.82h.8v1.82l-.18-.23c.1-.19.24-.33.43-.43s.4-.15.63-.15Z"/>
    <path class="cls-3" d="m15.16,20.26h-.83v-3.61h2.73v.67h-1.89v2.94Zm-.06-1.98h1.73v.67h-1.73v-.67Z"/>
    <path class="cls-3" d="m18.65,20.3c-.23,0-.44-.04-.62-.13-.18-.09-.32-.23-.42-.41-.1-.18-.15-.42-.15-.7v-1.57h.8v1.45c0,.23.05.4.15.51s.24.16.41.16c.12,0,.23-.03.33-.08.1-.05.17-.14.23-.25.05-.11.08-.25.08-.42v-1.37h.8v2.77h-.76v-.76l.14.22c-.09.19-.23.34-.41.44-.18.1-.38.15-.59.15Z"/>
    <path class="cls-3" d="m22.71,17.44c.22,0,.42.04.59.13.17.09.31.22.41.4.1.18.15.41.15.69v1.59h-.8v-1.46c0-.22-.05-.39-.15-.49-.1-.11-.24-.16-.41-.16-.13,0-.24.03-.34.08-.1.05-.18.13-.24.24s-.08.25-.08.42v1.37h-.8v-2.77h.77v.77l-.14-.23c.1-.19.24-.33.43-.43.19-.1.4-.15.63-.15Z"/>
    <path class="cls-3" d="m25.8,20.3c-.26,0-.5-.06-.71-.18-.21-.12-.38-.28-.5-.5-.12-.21-.18-.46-.18-.75s.06-.54.18-.76c.12-.21.29-.38.5-.49.21-.12.44-.18.71-.18.23,0,.44.05.61.15.18.1.31.26.41.47.1.21.14.48.14.8s-.05.59-.14.8c-.09.21-.23.37-.4.47s-.38.15-.63.15Zm.14-.66c.13,0,.25-.03.36-.09.11-.06.19-.15.26-.27.06-.11.1-.25.1-.41s-.03-.3-.1-.41c-.06-.11-.15-.2-.26-.26s-.22-.09-.36-.09-.25.03-.36.09c-.11.06-.19.15-.26.26-.06.11-.1.25-.1.41s.03.29.1.41c.06.12.15.2.26.27.11.06.23.09.36.09Zm.73.62v-.57l.02-.82-.05-.82v-1.61h.8v3.82h-.77Z"/>
    <path class="cls-3" d="m27.82,20.26l1.55-2.14v.61l-1.48-2.08h.95l1.03,1.45h-.4s1.01-1.45,1.01-1.45h.91l-1.47,2.04v-.6l1.56,2.16h-.96l-1.06-1.53h.38l-1.05,1.53h-.96Z"/>
  </g>
</svg>