<?xml version="1.0" encoding="UTF-8"?>
<svg id="Layer_1" data-name="Layer 1" xmlns="http://www.w3.org/2000/svg" xmlns:xlink="http://www.w3.org/1999/xlink" viewBox="0 0 31.46 20.3">
  <defs>
    <style>
      .cls-1 {
        fill: url(#linear-gradient-2);
      }

      .cls-2 {
        fill: #fff;
      }

      .cls-3 {
        fill: url(#linear-gradient);
      }
    </style>
    <linearGradient id="linear-gradient" x1="15.7" y1="0" x2="15.7" y2="14.56" gradientUnits="userSpaceOnUse">
      <stop offset="0" stop-color="#070e1f"/>
      <stop offset="1" stop-color="#09a372"/>
    </linearGradient>
    <linearGradient id="linear-gradient-2" x1="7.22" y1="12.27" x2="16.98" y2="-1.68" xlink:href="#linear-gradient"/>
  </defs>
  <g>
    <path class="cls-3" d="m22.42,14.56h-13.43c-1.55,0-2.82-1.27-2.82-2.82V2.82c0-1.55,1.27-2.82,2.82-2.82h13.43c1.53,0,2.82,1.27,2.82,2.82v8.92c0,1.55-1.27,2.82-2.82,2.82Z"/>
    <path class="cls-1" d="m23.82.39l-4.51,6.44-5.67-1.42-5.21,9.09c-1.28-.26-2.26-1.4-2.26-2.76V2.82c0-1.55,1.27-2.82,2.82-2.82h13.43c.5,0,.99.16,1.4.39Z"/>
  </g>
  <polygon class="cls-2" points="16.99 0 12.09 8.12 15.28 8.25 14.03 14.56 20.21 5.54 16.54 5.6 16.99 0"/>
</svg>