<?xml version="1.0" encoding="UTF-8"?>
<svg id="Layer_1" data-name="Layer 1" xmlns="http://www.w3.org/2000/svg" xmlns:xlink="http://www.w3.org/1999/xlink" viewBox="0 0 47.14 30.41">
  <defs>
    <style>
      .cls-1 {
        fill: url(#linear-gradient-2);
      }

      .cls-2 {
        fill: #fff;
      }

      .cls-3 {
        fill: url(#linear-gradient);
      }
    </style>
    <linearGradient id="linear-gradient" x1="23.52" y1="0" x2="23.52" y2="21.81" gradientUnits="userSpaceOnUse">
      <stop offset="0" stop-color="#070e1f"/>
      <stop offset="1" stop-color="#09a372"/>
    </linearGradient>
    <linearGradient id="linear-gradient-2" x1="10.81" y1="18.38" x2="25.44" y2="-2.51" xlink:href="#linear-gradient"/>
  </defs>
  <g>
    <path class="cls-3" d="m33.58,21.81H13.46c-2.32,0-4.22-1.9-4.22-4.22V4.22c0-2.32,1.9-4.22,4.22-4.22h20.12c2.29,0,4.22,1.9,4.22,4.22v13.36c0,2.32-1.9,4.22-4.22,4.22Z"/>
    <path class="cls-1" d="m35.68.58l-6.75,9.65-8.49-2.12-7.81,13.62c-1.92-.39-3.39-2.1-3.39-4.14V4.22c0-2.32,1.9-4.22,4.22-4.22h20.12c.75,0,1.49.23,2.1.58Z"/>
  </g>
  <polygon class="cls-2" points="25.45 0 18.12 12.16 22.89 12.35 21.01 21.81 30.28 8.3 24.78 8.4 25.45 0"/>
</svg>