<?xml version="1.0" encoding="UTF-8"?>
<svg id="Layer_1" data-name="Layer 1" xmlns="http://www.w3.org/2000/svg" xmlns:xlink="http://www.w3.org/1999/xlink" viewBox="0 0 47.14 30.41">
  <defs>
    <style>
      .cls-1 {
        fill: url(#linear-gradient-2);
      }

      .cls-2 {
        fill: #fff;
      }

      .cls-3 {
        fill: #09a372;
      }

      .cls-4 {
        fill: url(#linear-gradient);
      }
    </style>
    <linearGradient id="linear-gradient" x1="23.52" y1="0" x2="23.52" y2="21.81" gradientUnits="userSpaceOnUse">
      <stop offset="0" stop-color="#070e1f"/>
      <stop offset="1" stop-color="#09a372"/>
    </linearGradient>
    <linearGradient id="linear-gradient-2" x1="10.81" y1="18.38" x2="25.44" y2="-2.51" xlink:href="#linear-gradient"/>
  </defs>
  <g>
    <path class="cls-4" d="m33.58,21.81H13.46c-2.32,0-4.22-1.9-4.22-4.22V4.22c0-2.32,1.9-4.22,4.22-4.22h20.12c2.29,0,4.22,1.9,4.22,4.22v13.36c0,2.32-1.9,4.22-4.22,4.22Z"/>
    <path class="cls-1" d="m35.68.58l-6.75,9.65-8.49-2.12-7.81,13.62c-1.92-.39-3.39-2.1-3.39-4.14V4.22c0-2.32,1.9-4.22,4.22-4.22h20.12c.75,0,1.49.23,2.1.58Z"/>
  </g>
  <polygon class="cls-2" points="25.45 0 18.12 12.16 22.89 12.35 21.01 21.81 30.28 8.3 24.78 8.4 25.45 0"/>
  <g>
    <path class="cls-3" d="m1.25,30.35H0v-5.4h4.08v1H1.25v4.4Zm-.09-2.97h2.59v1H1.16v-1Z"/>
    <path class="cls-3" d="m4.85,30.35v-5.73h1.2v5.73h-1.2Z"/>
    <path class="cls-3" d="m8.45,30.41c-.32,0-.6-.06-.83-.17-.23-.11-.41-.26-.53-.45s-.19-.4-.19-.64.06-.46.18-.65c.12-.19.31-.33.58-.44.26-.11.6-.16,1.03-.16h1.1v.7h-.97c-.28,0-.48.05-.58.14-.11.09-.16.21-.16.35,0,.15.06.28.18.37.12.09.29.14.5.14s.38-.05.54-.14c.16-.1.28-.24.35-.42l.19.56c-.09.27-.25.47-.48.61-.23.14-.53.21-.9.21Zm1.27-.06v-.81l-.08-.18v-1.45c0-.26-.08-.46-.24-.6-.16-.14-.4-.22-.72-.22-.22,0-.44.03-.65.1-.21.07-.4.16-.54.28l-.43-.84c.23-.16.5-.28.82-.37.32-.09.64-.13.97-.13.63,0,1.12.15,1.47.45.35.3.52.76.52,1.4v2.37h-1.13Z"/>
    <path class="cls-3" d="m13.33,30.41c-.36,0-.7-.04-1.02-.13-.33-.08-.59-.19-.78-.32l.4-.86c.19.12.42.22.68.29.26.07.52.11.77.11.28,0,.47-.03.59-.1s.17-.16.17-.28c0-.1-.05-.17-.14-.22-.09-.05-.21-.09-.36-.11-.15-.03-.31-.05-.49-.08-.18-.03-.36-.06-.54-.1-.18-.04-.34-.11-.49-.2-.15-.09-.27-.21-.36-.36-.09-.15-.14-.34-.14-.58,0-.26.08-.49.23-.69.15-.2.37-.36.66-.47.29-.12.63-.17,1.03-.17.28,0,.57.03.86.09.29.06.54.15.73.27l-.4.86c-.2-.12-.4-.2-.61-.24-.2-.04-.4-.07-.59-.07-.27,0-.46.04-.59.11-.12.07-.19.16-.19.28,0,.1.05.18.14.23.09.05.21.09.36.12s.31.06.49.08.36.06.54.1c.18.05.34.11.49.2.15.08.27.2.36.35s.14.34.14.58c0,.26-.08.49-.23.68-.15.2-.38.35-.67.47-.29.11-.64.17-1.06.17Z"/>
    <path class="cls-3" d="m18.56,26.13c.33,0,.62.07.88.2.26.13.46.33.61.6.15.27.22.62.22,1.04v2.38h-1.2v-2.19c0-.33-.07-.58-.22-.74-.15-.16-.35-.24-.62-.24-.19,0-.36.04-.51.12-.15.08-.27.2-.36.37-.08.16-.13.38-.13.63v2.05h-1.2v-5.73h1.2v2.73l-.27-.35c.15-.28.36-.49.64-.64s.59-.22.95-.22Z"/>
    <path class="cls-3" d="m22.7,30.35h-1.25v-5.4h4.08v1h-2.83v4.4Zm-.09-2.97h2.59v1h-2.59v-1Z"/>
    <path class="cls-3" d="m27.94,30.41c-.34,0-.65-.07-.92-.2-.27-.13-.48-.34-.63-.61-.15-.28-.22-.63-.22-1.05v-2.35h1.2v2.17c0,.34.07.6.22.76s.35.24.62.24c.19,0,.35-.04.49-.12.14-.08.26-.2.34-.37.08-.17.12-.38.12-.63v-2.05h1.2v4.15h-1.14v-1.14l.21.33c-.14.29-.34.51-.61.65-.27.15-.56.22-.88.22Z"/>
    <path class="cls-3" d="m34.02,26.13c.33,0,.62.07.88.2.26.13.46.33.61.6.15.27.22.62.22,1.04v2.38h-1.2v-2.19c0-.33-.07-.58-.22-.74-.15-.16-.35-.24-.62-.24-.19,0-.36.04-.51.12-.15.08-.27.2-.36.37s-.13.38-.13.63v2.05h-1.2v-4.15h1.15v1.15l-.22-.35c.15-.28.36-.49.64-.64.28-.15.59-.22.95-.22Z"/>
    <path class="cls-3" d="m38.64,30.41c-.39,0-.74-.09-1.06-.27-.31-.18-.56-.43-.75-.75-.18-.32-.27-.69-.27-1.13s.09-.82.27-1.13c.18-.32.43-.57.75-.74.31-.17.67-.26,1.06-.26.35,0,.66.08.92.23.26.15.47.39.61.7.14.31.22.72.22,1.2s-.07.88-.21,1.2c-.14.32-.34.55-.6.71s-.57.23-.94.23Zm.21-.99c.2,0,.37-.05.53-.14.16-.09.29-.23.38-.4.1-.17.14-.38.14-.61s-.05-.45-.14-.62c-.1-.17-.22-.3-.38-.39s-.34-.14-.53-.14-.38.05-.54.14c-.16.09-.29.22-.38.39-.1.17-.14.38-.14.62s.05.44.14.61c.09.17.22.3.38.4.16.09.34.14.54.14Zm1.09.93v-.85l.02-1.24-.08-1.23v-2.42h1.2v5.73h-1.15Z"/>
    <path class="cls-3" d="m41.67,30.35l2.32-3.2v.91l-2.22-3.11h1.42l1.54,2.17h-.59s1.51-2.17,1.51-2.17h1.36l-2.21,3.06v-.9l2.34,3.24h-1.44l-1.59-2.29h.57l-1.57,2.29h-1.44Z"/>
  </g>
</svg>