<?xml version="1.0" encoding="UTF-8"?>
<svg id="Layer_1" data-name="Layer 1" xmlns="http://www.w3.org/2000/svg" xmlns:xlink="http://www.w3.org/1999/xlink" viewBox="0 0 774.97 499.94">
  <defs>
    <style>
      .cls-1 {
        fill: url(#linear-gradient-2);
      }

      .cls-2 {
        fill: #fff;
      }

      .cls-3 {
        fill: #09a372;
      }

      .cls-4 {
        fill: url(#linear-gradient);
      }
    </style>
    <linearGradient id="linear-gradient" x1="386.72" y1="0" x2="386.72" y2="358.55" gradientUnits="userSpaceOnUse">
      <stop offset="0" stop-color="#070e1f"/>
      <stop offset="1" stop-color="#09a372"/>
    </linearGradient>
    <linearGradient id="linear-gradient-2" x1="177.75" y1="302.14" x2="418.19" y2="-41.26" xlink:href="#linear-gradient"/>
  </defs>
  <g>
    <path class="cls-4" d="m552.1,358.55H221.34c-38.18,0-69.43-31.24-69.43-69.43V69.43C151.92,31.24,183.16,0,221.34,0h330.75c37.7,0,69.43,31.24,69.43,69.43v219.7c0,38.18-31.24,69.43-69.43,69.43Z"/>
    <path class="cls-1" d="m586.62,9.52l-111.05,158.65-139.61-34.9-128.35,223.89c-31.63-6.41-55.69-34.55-55.69-68.03V69.43C151.92,31.25,183.17,0,221.34,0h330.75c12.31,0,24.46,3.84,34.52,9.52Z"/>
  </g>
  <polygon class="cls-2" points="418.45 0 297.88 199.9 376.38 203.07 345.47 358.55 497.78 136.44 407.34 138.03 418.45 0"/>
  <g>
    <path class="cls-3" d="m20.56,498.92H0v-88.84h67.14v16.5H20.56v72.34Zm-1.52-48.87h42.64v16.5H19.04v-16.5Z"/>
    <path class="cls-3" d="m79.7,498.92v-94.17h19.8v94.17h-19.8Z"/>
    <path class="cls-3" d="m138.98,499.94c-5.33,0-9.9-.91-13.71-2.73-3.81-1.82-6.73-4.29-8.76-7.42-2.03-3.13-3.05-6.64-3.05-10.54s.99-7.61,2.98-10.66c1.99-3.05,5.14-5.44,9.46-7.17,4.31-1.73,9.94-2.6,16.88-2.6h18.15v11.55h-15.99c-4.65,0-7.85.76-9.58,2.28-1.74,1.52-2.6,3.43-2.6,5.71,0,2.54.99,4.55,2.98,6.03,1.99,1.48,4.72,2.22,8.19,2.22s6.26-.78,8.88-2.35c2.62-1.56,4.53-3.87,5.71-6.92l3.05,9.14c-1.44,4.4-4.06,7.74-7.87,10.03-3.81,2.28-8.72,3.43-14.72,3.43Zm20.82-1.02v-13.33l-1.27-2.92v-23.86c0-4.23-1.29-7.53-3.87-9.9-2.58-2.37-6.54-3.55-11.87-3.55-3.64,0-7.22.57-10.73,1.71-3.51,1.14-6.49,2.69-8.95,4.63l-7.11-13.84c3.72-2.62,8.21-4.65,13.45-6.09,5.25-1.44,10.58-2.16,15.99-2.16,10.41,0,18.49,2.45,24.24,7.36,5.75,4.91,8.63,12.56,8.63,22.97v38.97h-18.53Z"/>
    <path class="cls-3" d="m219.19,499.94c-5.84,0-11.44-.7-16.82-2.09-5.37-1.4-9.63-3.15-12.76-5.27l6.6-14.22c3.13,1.95,6.83,3.54,11.11,4.76,4.27,1.23,8.48,1.84,12.63,1.84,4.57,0,7.81-.55,9.71-1.65,1.9-1.1,2.86-2.62,2.86-4.57,0-1.61-.74-2.81-2.22-3.62-1.48-.8-3.45-1.42-5.9-1.84-2.45-.42-5.14-.85-8.06-1.27-2.92-.42-5.86-.99-8.82-1.71-2.96-.72-5.67-1.8-8.12-3.24-2.45-1.44-4.42-3.38-5.9-5.84-1.48-2.45-2.22-5.63-2.22-9.52,0-4.32,1.25-8.12,3.74-11.42,2.49-3.3,6.11-5.9,10.85-7.81,4.74-1.9,10.41-2.85,17.01-2.85,4.65,0,9.39.51,14.21,1.52,4.82,1.02,8.84,2.5,12.06,4.44l-6.6,14.09c-3.3-1.95-6.62-3.28-9.96-4-3.34-.72-6.58-1.08-9.71-1.08-4.4,0-7.61.59-9.64,1.78-2.03,1.18-3.05,2.71-3.05,4.57,0,1.69.74,2.96,2.22,3.81,1.48.85,3.45,1.52,5.9,2.03,2.45.51,5.14.95,8.06,1.33,2.92.38,5.86.95,8.82,1.71,2.96.76,5.65,1.84,8.06,3.24,2.41,1.39,4.38,3.3,5.9,5.71,1.52,2.41,2.28,5.57,2.28,9.46,0,4.23-1.27,7.98-3.81,11.23-2.54,3.26-6.2,5.82-10.98,7.68-4.78,1.86-10.6,2.79-17.45,2.79Z"/>
    <path class="cls-3" d="m305.11,429.63c5.41,0,10.26,1.08,14.53,3.23,4.27,2.16,7.64,5.46,10.09,9.9,2.45,4.44,3.68,10.14,3.68,17.07v39.09h-19.8v-36.05c0-5.5-1.21-9.56-3.62-12.18-2.41-2.62-5.82-3.94-10.22-3.94-3.13,0-5.94.66-8.44,1.97-2.5,1.31-4.44,3.32-5.84,6.03-1.4,2.71-2.09,6.18-2.09,10.41v33.76h-19.8v-94.17h19.8v44.8l-4.44-5.71c2.45-4.57,5.96-8.08,10.53-10.53,4.57-2.45,9.77-3.68,15.61-3.68Z"/>
    <path class="cls-3" d="m373.27,498.92h-20.56v-88.84h67.14v16.5h-46.58v72.34Zm-1.52-48.87h42.64v16.5h-42.64v-16.5Z"/>
    <path class="cls-3" d="m459.44,499.94c-5.67,0-10.72-1.1-15.16-3.3-4.44-2.2-7.89-5.56-10.35-10.09-2.45-4.52-3.68-10.3-3.68-17.32v-38.58h19.8v35.66c0,5.67,1.21,9.84,3.62,12.5s5.82,4,10.22,4c3.04,0,5.75-.65,8.12-1.97,2.37-1.31,4.23-3.34,5.59-6.09,1.35-2.75,2.03-6.2,2.03-10.34v-33.76h19.8v68.28h-18.78v-18.78l3.43,5.46c-2.28,4.74-5.65,8.31-10.09,10.72-4.44,2.41-9.29,3.62-14.53,3.62Z"/>
    <path class="cls-3" d="m559.33,429.63c5.41,0,10.26,1.08,14.53,3.23,4.27,2.16,7.64,5.46,10.09,9.9,2.45,4.44,3.68,10.14,3.68,17.07v39.09h-19.8v-36.05c0-5.5-1.21-9.56-3.62-12.18-2.41-2.62-5.82-3.94-10.22-3.94-3.13,0-5.95.66-8.44,1.97-2.5,1.31-4.44,3.32-5.84,6.03-1.4,2.71-2.09,6.18-2.09,10.41v33.76h-19.8v-68.28h18.91v18.91l-3.55-5.71c2.45-4.57,5.96-8.08,10.54-10.53,4.57-2.45,9.77-3.68,15.61-3.68Z"/>
    <path class="cls-3" d="m635.35,499.94c-6.43,0-12.23-1.46-17.39-4.38-5.16-2.92-9.25-7-12.25-12.25-3.01-5.25-4.51-11.42-4.51-18.53s1.5-13.41,4.51-18.66c3-5.25,7.09-9.31,12.25-12.19,5.16-2.88,10.96-4.31,17.39-4.31,5.75,0,10.79,1.27,15.1,3.81,4.32,2.54,7.66,6.39,10.03,11.55,2.37,5.16,3.56,11.76,3.56,19.8s-1.15,14.53-3.43,19.74c-2.29,5.2-5.57,9.08-9.84,11.61-4.27,2.54-9.41,3.81-15.42,3.81Zm3.43-16.25c3.22,0,6.14-.76,8.76-2.28,2.62-1.52,4.72-3.7,6.28-6.54,1.56-2.83,2.35-6.2,2.35-10.09s-.78-7.36-2.35-10.15c-1.57-2.79-3.66-4.95-6.28-6.47-2.62-1.52-5.54-2.28-8.76-2.28s-6.26.76-8.88,2.28c-2.62,1.52-4.72,3.68-6.28,6.47-1.57,2.79-2.35,6.18-2.35,10.15s.78,7.26,2.35,10.09c1.56,2.84,3.66,5.01,6.28,6.54,2.62,1.52,5.59,2.28,8.88,2.28Zm17.9,15.23v-13.96l.38-20.31-1.27-20.18v-39.72h19.8v94.17h-18.91Z"/>
    <path class="cls-3" d="m685.11,498.92l38.2-52.67v14.98l-36.55-51.15h23.35l25.26,35.67-9.77.13,24.88-35.79h22.34l-36.3,50.26v-14.72l38.46,53.31h-23.74l-26.15-37.69h9.4l-25.77,37.69h-23.61Z"/>
  </g>
</svg>