<?xml version="1.0" encoding="UTF-8"?>
<svg id="Layer_1" data-name="Layer 1" xmlns="http://www.w3.org/2000/svg" xmlns:xlink="http://www.w3.org/1999/xlink" viewBox="0 0 1945.86 1255.3">
  <defs>
    <style>
      .cls-1 {
        fill: url(#linear-gradient-2);
      }

      .cls-2 {
        fill: #fff;
      }

      .cls-3 {
        fill: #09a372;
      }

      .cls-4 {
        fill: url(#linear-gradient);
      }
    </style>
    <linearGradient id="linear-gradient" x1="971.01" y1="0" x2="971.01" y2="900.28" gradientUnits="userSpaceOnUse">
      <stop offset="0" stop-color="#070e1f"/>
      <stop offset="1" stop-color="#09a372"/>
    </linearGradient>
    <linearGradient id="linear-gradient-2" x1="446.3" y1="758.64" x2="1050.04" y2="-103.59" xlink:href="#linear-gradient"/>
  </defs>
  <g>
    <path class="cls-4" d="m1386.26,900.28h-830.49c-95.88,0-174.32-78.44-174.32-174.32V174.32C381.45,78.44,459.89,0,555.77,0h830.49C1480.91,0,1560.58,78.44,1560.58,174.32v551.64c0,95.88-78.44,174.32-174.32,174.32Z"/>
    <path class="cls-1" d="m1472.94,23.9l-278.85,398.35-350.55-87.64-322.27,562.16c-79.43-16.09-139.82-86.76-139.82-170.81V174.32C381.45,78.48,459.93,0,555.77,0h830.49C1417.17,0,1447.68,9.64,1472.94,23.9Z"/>
  </g>
  <polygon class="cls-2" points="1050.69 0 747.94 501.93 945.04 509.89 867.44 900.28 1249.86 342.58 1022.8 346.57 1050.69 0"/>
  <g>
    <path class="cls-3" d="m51.63,1252.74H0v-223.08h168.58v41.43H51.63v181.65Zm-3.82-122.7h107.08v41.43H47.8v-41.43Z"/>
    <path class="cls-3" d="m200.13,1252.74v-236.46h49.72v236.46h-49.72Z"/>
    <path class="cls-3" d="m348.96,1255.3c-13.39,0-24.86-2.29-34.42-6.85-9.56-4.57-16.89-10.78-21.99-18.64s-7.65-16.67-7.65-26.45,2.49-19.12,7.49-26.76c4.99-7.65,12.91-13.65,23.74-18.01,10.83-4.35,24.96-6.53,42.39-6.53h45.57v29h-40.15c-11.69,0-19.71,1.91-24.06,5.73-4.36,3.83-6.53,8.61-6.53,14.34,0,6.38,2.49,11.43,7.49,15.14,4.99,3.72,11.84,5.58,20.56,5.58s15.72-1.96,22.31-5.9c6.58-3.93,11.36-9.72,14.34-17.37l7.65,22.94c-3.62,11.05-10.2,19.44-19.76,25.18-9.56,5.73-21.89,8.61-36.97,8.61Zm52.26-2.55v-33.46l-3.19-7.33v-59.91c0-10.62-3.24-18.91-9.72-24.86-6.48-5.94-16.41-8.92-29.79-8.92-9.14,0-18.12,1.43-26.93,4.3-8.82,2.86-16.31,6.75-22.47,11.63l-17.85-34.74c9.35-6.58,20.61-11.68,33.78-15.3,13.17-3.61,26.55-5.42,40.15-5.42,26.13,0,46.42,6.16,60.87,18.49,14.44,12.32,21.67,31.55,21.67,57.68v97.84h-46.53Z"/>
    <path class="cls-3" d="m550.36,1255.3c-14.66,0-28.74-1.76-42.23-5.26-13.49-3.51-24.17-7.91-32.03-13.23l16.57-35.7c7.86,4.89,17.16,8.88,27.88,11.95,10.73,3.09,21.3,4.62,31.71,4.62,11.47,0,19.6-1.38,24.38-4.14s7.17-6.58,7.17-11.48c0-4.03-1.86-7.06-5.57-9.08-3.72-2.02-8.66-3.56-14.82-4.62-6.16-1.06-12.9-2.12-20.23-3.19-7.33-1.06-14.72-2.49-22.15-4.29-7.44-1.81-14.23-4.51-20.4-8.13-6.16-3.61-11.1-8.5-14.82-14.66-3.72-6.16-5.58-14.13-5.58-23.9,0-10.84,3.13-20.4,9.4-28.69,6.26-8.28,15.35-14.81,27.25-19.6,11.9-4.78,26.13-7.17,42.7-7.17,11.68,0,23.59,1.28,35.69,3.82,12.11,2.55,22.2,6.27,30.28,11.16l-16.57,35.38c-8.29-4.89-16.63-8.23-25.02-10.04-8.39-1.8-16.52-2.71-24.38-2.71-11.05,0-19.12,1.49-24.22,4.47-5.1,2.97-7.65,6.8-7.65,11.47,0,4.26,1.86,7.44,5.58,9.56,3.72,2.12,8.66,3.82,14.82,5.1s12.91,2.39,20.24,3.35c7.33.96,14.71,2.4,22.15,4.3,7.43,1.91,14.18,4.62,20.24,8.13,6.05,3.5,10.99,8.29,14.82,14.34s5.73,13.97,5.73,23.75c0,10.62-3.19,20.03-9.56,28.2-6.38,8.18-15.56,14.61-27.57,19.29-12.01,4.67-26.61,7.01-43.82,7.01Z"/>
    <path class="cls-3" d="m766.1,1078.74c13.59,0,25.76,2.71,36.49,8.12,10.73,5.42,19.17,13.71,25.34,24.86,6.16,11.16,9.24,25.45,9.24,42.86v98.16h-49.71v-90.51c0-13.8-3.03-24-9.08-30.59-6.05-6.58-14.61-9.88-25.66-9.88-7.86,0-14.93,1.65-21.19,4.94-6.27,3.3-11.15,8.34-14.66,15.14-3.51,6.8-5.26,15.51-5.26,26.13v84.77h-49.72v-236.46h49.72v112.5l-11.15-14.35c6.16-11.47,14.98-20.28,26.45-26.45,11.47-6.16,24.54-9.24,39.2-9.24Z"/>
    <path class="cls-3" d="m937.23,1252.74h-51.63v-223.08h168.58v41.43h-116.95v181.65Zm-3.82-122.7h107.08v41.43h-107.08v-41.43Z"/>
    <path class="cls-3" d="m1153.62,1255.3c-14.24,0-26.93-2.76-38.08-8.29-11.16-5.52-19.82-13.97-25.98-25.34-6.16-11.36-9.24-25.86-9.24-43.5v-96.87h49.72v89.54c0,14.24,3.03,24.7,9.08,31.39,6.05,6.69,14.61,10.04,25.66,10.04,7.64,0,14.44-1.64,20.39-4.94,5.94-3.29,10.62-8.39,14.03-15.3,3.39-6.9,5.09-15.56,5.09-25.97v-84.77h49.72v171.45h-47.16v-47.16l8.61,13.7c-5.73,11.9-14.18,20.87-25.33,26.93-11.16,6.06-23.32,9.09-36.49,9.09Z"/>
    <path class="cls-3" d="m1404.43,1078.74c13.58,0,25.75,2.71,36.49,8.12,10.72,5.42,19.17,13.71,25.33,24.86,6.16,11.16,9.24,25.45,9.24,42.86v98.16h-49.72v-90.51c0-13.8-3.03-24-9.09-30.59-6.05-6.58-14.61-9.88-25.65-9.88-7.87,0-14.93,1.65-21.19,4.94-6.27,3.3-11.16,8.34-14.67,15.14-3.51,6.8-5.25,15.51-5.25,26.13v84.77h-49.72v-171.45h47.48v47.48l-8.92-14.35c6.16-11.47,14.98-20.28,26.45-26.45,11.47-6.16,24.54-9.24,39.2-9.24Z"/>
    <path class="cls-3" d="m1595.31,1255.3c-16.14,0-30.7-3.66-43.66-10.99-12.96-7.34-23.22-17.58-30.76-30.76-7.55-13.17-11.31-28.68-11.31-46.53s3.77-33.67,11.31-46.85c7.54-13.17,17.79-23.37,30.76-30.6,12.95-7.22,27.51-10.83,43.66-10.83,14.45,0,27.09,3.18,37.92,9.56,10.85,6.37,19.23,16.04,25.18,29,5.94,12.96,8.93,29.53,8.93,49.72s-2.88,36.49-8.61,49.55c-5.74,13.06-13.97,22.79-24.7,29.16-10.73,6.37-23.64,9.56-38.72,9.56Zm8.61-40.79c8.08,0,15.41-1.91,21.99-5.73,6.58-3.83,11.84-9.3,15.78-16.42,3.93-7.11,5.9-15.56,5.9-25.33s-1.97-18.49-5.9-25.5c-3.94-7.01-9.2-12.43-15.78-16.25s-13.91-5.73-21.99-5.73-15.72,1.91-22.31,5.73c-6.59,3.83-11.85,9.24-15.77,16.25-3.94,7.01-5.9,15.51-5.9,25.5s1.96,18.22,5.9,25.33c3.92,7.12,9.18,12.59,15.77,16.42,6.58,3.82,14.03,5.73,22.31,5.73Zm44.94,38.24v-35.06l.95-50.98-3.18-50.67v-99.74h49.71v236.46h-47.48Z"/>
    <path class="cls-3" d="m1720.23,1252.74l95.92-132.25v37.6l-91.78-128.43h58.64l63.42,89.55-24.54.32,62.46-89.87h56.09l-91.14,126.2v-36.96l96.56,133.85h-59.6l-65.65-94.65h23.59l-64.7,94.65h-59.27Z"/>
  </g>
</svg>